<?xml version="1.0" encoding="utf-8"?>
<svg version="1.1" xmlns:xlink="http://www.w3.org/1999/xlink" width="191px" height="44px" xmlns="http://www.w3.org/2000/svg">
  <defs>
    <filter x="122px" y="171px" width="191px" height="44px" filterUnits="userSpaceOnUse" id="filter87">
      <feOffset dx="0" dy="0" in="SourceAlpha" result="shadowOffsetInner" />
      <feGaussianBlur stdDeviation="2.5" in="shadowOffsetInner" result="shadowGaussian" />
      <feComposite in2="shadowGaussian" operator="atop" in="SourceAlpha" result="shadowComposite" />
      <feColorMatrix type="matrix" values="0 0 0 0 1  0 0 0 0 1  0 0 0 0 1  0 0 0 1 0  " in="shadowComposite" />
    </filter>
    <g id="widget88">
      <path d="M 127.5 193  A 16.5 16.5 0 0 1 144 176.5 L 291 176.5  A 16.5 16.5 0 0 1 307.5 193 A 16.5 16.5 0 0 1 291 209.5 L 144 209.5  A 16.5 16.5 0 0 1 127.5 193 Z " fill-rule="nonzero" fill="#ffffff" stroke="none" fill-opacity="0" />
      <path d="M 127.5 193  A 16.5 16.5 0 0 1 144 176.5 L 291 176.5  A 16.5 16.5 0 0 1 307.5 193 A 16.5 16.5 0 0 1 291 209.5 L 144 209.5  A 16.5 16.5 0 0 1 127.5 193 Z " stroke-width="1" stroke="#d7d7d7" fill="none" />
    </g>
  </defs>
  <g transform="matrix(1 0 0 1 -122 -171 )">
    <use xlink:href="#widget88" filter="url(#filter87)" />
    <use xlink:href="#widget88" />
  </g>
</svg>