<?xml version="1.0" standalone="no"?><!DOCTYPE svg PUBLIC "-//W3C//DTD SVG 1.1//EN" "http://www.w3.org/Graphics/SVG/1.1/DTD/svg11.dtd"><svg t="1634799287942" class="icon" viewBox="0 0 1024 1024" version="1.1" xmlns="http://www.w3.org/2000/svg" p-id="1121" xmlns:xlink="http://www.w3.org/1999/xlink" width="72" height="72"><defs><style type="text/css"></style></defs><path d="M185.2 397.2c0 182 147.5 329.5 329.5 329.5s329.5-147.5 329.5-329.5S696.7 67.7 514.7 67.7c-181.9 0-329.5 147.5-329.5 329.5z" fill="#A1C7F9" p-id="1122"></path><path d="M954.1 646.8c-20-39.9-69.9-39.9-99.9-30l-89.9 20c-0.5 31.3-15.2 60.7-39.9 79.9-59.9 49.9-169.8 59.9-249.6 59.9h-89.9c-20 0-30-20-20-30 0-20 20-30 30-20 59.9 10 229.7 10 289.6-39.9 20-30 30-39.9 30-59.9-18.9-18.1-43.7-28.8-69.9-30H85.4c-10.7 0.7-19.2 9.3-20 20v209.7c0.7 10.7 9.3 19.2 20 20 149.8 49.9 339.5 109.8 449.3 109.8h39.9c69.9-10 309.5-169.8 359.5-209.7 22.7-27.9 30.2-65.3 20-99.8z" fill="#72AEFD" p-id="1123"></path><path d="M666.1 310.5l-31.2 31.2-74.2-74 31.2-31.2c5.6-5.9 14.9-6.1 20.7-0.5 0.2 0.1 0.3 0.3 0.5 0.5l52.8 52.8c5.9 5.6 6 14.9 0.4 20.8l-0.4 0.4h0.2zM354.4 548.2l89.7-15.6-74.2-74.2-15.5 89.8z m25.9-99.8l74 74 169.1-169.1-74-74.1-169.1 169.1v0.1z" fill="#FFFFFF" p-id="1124"></path></svg>