<?xml version="1.0" standalone="no"?><!DOCTYPE svg PUBLIC "-//W3C//DTD SVG 1.1//EN" "http://www.w3.org/Graphics/SVG/1.1/DTD/svg11.dtd"><svg t="1634801244568" class="icon" viewBox="0 0 1113 1024" version="1.1" xmlns="http://www.w3.org/2000/svg" p-id="4536" xmlns:xlink="http://www.w3.org/1999/xlink" width="78.2578125" height="72"><defs><style type="text/css"></style></defs><path d="M902 224.4c-106.6-16.7-208.7-54.8-300.2-111.9l-67.1-41.9c-7-4.3-14.9-6.5-22.8-6.5s-15.9 2.1-22.8 6.5L422 112.5c-91.5 57.1-193.6 95.3-300.2 111.9l-14.7 2.3v234.7c0 3.9 0.1 7.8 0.2 11.7 0.1 2.1 0.2 4.1 0.3 6.2l0.3 6c0.2 2.7 0.3 5.3 0.5 7.9 0.1 1.2 0.2 2.5 0.3 3.7 0.3 3.1 0.6 6.2 0.9 9.4 0.1 0.5 0.1 1 0.2 1.5 14.2 127.9 85.7 243.6 196 313.3l116.5 84 64.7 46.7a41.6 41.6 0 0 0 25 8c8.8 0 17.5-2.7 25-8l64.7-46.7 116.5-84c110.3-69.7 181.8-185.4 196-313.3 0.1-0.5 0.1-1 0.2-1.5l0.9-9.3c0.1-1.2 0.2-2.5 0.3-3.7 0.2-2.6 0.4-5.3 0.5-7.9l0.3-6c0.1-2 0.2-4.1 0.3-6.1 0.1-3.9 0.2-7.8 0.2-11.7V226.7l-14.9-2.3z" fill="#FF9D1C" p-id="4537"></path><path d="M710.2 549.2c-113.1 0-204.7 91.7-204.7 204.7s91.7 204.7 204.7 204.7S914.9 867 914.9 753.9s-91.7-204.7-204.7-204.7z" fill="#FFC885" p-id="4538"></path><path d="M993.6 470.1c-66.3 0-120 22.5-120 50.2 0 12.9 11.7 24.7 30.8 33.6-19.2 19-72 71.8-72.9 72.7L714.6 743.5 673.2 702c-16.7-16.5-43.8-16.5-60.4 0-16.5 16.7-16.5 43.8 0 60.4l71.6 71.6c16.7 16.5 43.8 16.5 60.4 0l263.9-263.8c59.2-3.1 104.9-24.2 104.9-49.9 0-27.7-53.8-50.2-120-50.2z" fill="#FFF1DF" p-id="4539"></path></svg>