<?xml version="1.0" standalone="no"?><!DOCTYPE svg PUBLIC "-//W3C//DTD SVG 1.1//EN" "http://www.w3.org/Graphics/SVG/1.1/DTD/svg11.dtd"><svg t="1634799938254" class="icon" viewBox="0 0 1024 1024" version="1.1" xmlns="http://www.w3.org/2000/svg" p-id="2786" xmlns:xlink="http://www.w3.org/1999/xlink" width="72" height="72"><defs><style type="text/css"></style></defs><path d="M70.6 131.63c2.4-36.1 30.7-64.9 66.2-67.3h750.5c35.1-1.5 64.8 26.2 66.2 61.9 0.1 1.8 0.1 3.6 0 5.4-2.4 36.1-30.7 64.9-66.2 67.3H125.8c-33.3-3.5-57.8-33.3-55.2-67.3z" fill="#FF9100" p-id="2787"></path><path d="M129.5 131.63v785.2c0 33.7 44.1 56.1 66.2 33.7l55.2-56.1 55.2 44.9c16.7 11.2 38.4 11.2 55.2 0l55.2-56.1 55.2 56.1c16.7 11.2 38.4 11.2 55.2 0l55.2-56.1 55.2 56.1c16.7 11.2 38.4 11.2 55.2 0l55.2-56.1 55.2 56.1c15.6 15.3 40.5 14.8 55.6-1.1 8.2-8.7 12.1-20.6 10.7-32.5v-774H129.5z" fill="#FF9D1C" p-id="2788"></path><path d="M284.4 278.43H638c17.2 0 31.2 11.4 31.2 25.5s-14 25.5-31.2 25.5H284.4c-17.2 0-31.2-11.4-31.2-25.5s14-25.5 31.2-25.5zM269.9 414.53H570c9.2 0 16.7 11.4 16.7 25.5s-7.5 25.5-16.7 25.5H269.9c-9.2 0-16.7-11.4-16.7-25.5s7.5-25.5 16.7-25.5zM299.7 550.53h402.7c25.7 0 46.5 11.4 46.5 25.5s-20.8 25.5-46.5 25.5H299.7c-25.7 0-46.5-11.4-46.5-25.5s20.8-25.5 46.5-25.5zM279.4 686.53h365.8c14.4 0 26.1 11.4 26.1 25.5s-11.7 25.5-26.1 25.5H279.4c-14.4 0-26.1-11.4-26.1-25.5-0.1-14.1 11.6-25.5 26.1-25.5z" fill="#FFF1DF" p-id="2789"></path></svg>