<?xml version="1.0" standalone="no"?><!DOCTYPE svg PUBLIC "-//W3C//DTD SVG 1.1//EN" "http://www.w3.org/Graphics/SVG/1.1/DTD/svg11.dtd"><svg t="1634799871691" class="icon" viewBox="0 0 1024 1024" version="1.1" xmlns="http://www.w3.org/2000/svg" p-id="2368" xmlns:xlink="http://www.w3.org/1999/xlink" width="72" height="72"><defs><style type="text/css"></style></defs><path d="M209.496 123.908h622.4c36.6 0 66.3 29.7 66.3 66.3v406.7c0 36.6-29.7 66.3-66.3 66.3h-622.4c-36.6 0-66.3-29.7-66.3-66.3v-406.7c0.1-36.6 29.7-66.3 66.3-66.3z" fill="#C6C9FC" p-id="2369"></path><path d="M310.796 334.508c21.3 64.5 80.6 64.5 101.4 0 8-5.4 13.5-13.9 15.1-23.4 1-9.4 0.5-21.8-8.8-21.8-0.8-31.4-26.9-56.3-58.3-55.6-30.4 0.7-54.8 25.2-55.6 55.6-9.3 0-10.4 12.5-8.8 21.8 1.5 9.6 7 18.1 15 23.4z" fill="#8880FE" p-id="2370"></path><path d="M447.496 682.308c24.6-0.2 44.5-20.1 44.7-44.7v-1.6l173.7-173.7c4.7-4.7 4.7-12.4 0-17.2-4.7-4.7-12.4-4.7-17.2 0l-157 156.6v-147.7c-0.6-32.8-24-60.7-56.2-67.1l-23.9-5.2c-13.9 27.6-47.4 38.7-75 24.8a56.11 56.11 0 0 1-24.8-24.8l-23.9 5.2c-32.2 6.3-55.7 34.3-56.1 67.1v183.5c0 24.7 20 44.7 44.7 44.7-0.1 12.3 9.8 22.3 22 22.4h126.7c12.3-0.1 22.3-10 22.3-22.3z" fill="#8880FE" p-id="2371"></path><path d="M164.196 663.608c14.7 6.6 32 0 38.5-14.8 1.6-3.7 2.5-7.7 2.5-11.7 0.1-9.2-5.8-17.4-14.5-20.3-28.5-10-47.7-36.9-47.8-67.1v-337.4c-0.2-39.2 31.5-71.1 70.7-71.3h593.2c39.2-0.1 71.1 31.6 71.2 70.8v337.9c0.1 39.2-31.6 71.1-70.8 71.2h-236.4c-14.6 0-26.5 11.8-26.5 26.5 0 14.6 11.8 26.5 26.5 26.5h236.7c68.6 0 124.3-55.6 124.3-124.3v-337.3c0-68.6-55.6-124.3-124.3-124.3h-592.9c-68.6 0-124.3 55.6-124.3 124.3v337.4c-0.4 49.3 28.7 94.1 73.9 113.9z m99.8 84.2h-93.1c-44.8 0.1-81 36.3-81.1 81.1v107.1h255.3v-107.1c-0.1-44.8-36.4-81.1-81.1-81.1z m294.3 0h-92.6c-44.8 0.1-81 36.3-81.1 81.1v107.1h255.3v-107.1c-0.5-44.8-36.8-80.9-81.6-81.1z m294.3 0h-92.6c-44.8 0.1-81 36.3-81.1 81.1v107.1h255.3v-107.1c-0.1-44.9-36.7-81.2-81.6-81.1z" fill="#8880FE" p-id="2372"></path></svg>