<?xml version="1.0" encoding="utf-8"?>
<svg version="1.1" xmlns:xlink="http://www.w3.org/1999/xlink" width="43px" height="50px" xmlns="http://www.w3.org/2000/svg">
  <g transform="matrix(1 0 0 1 -1090 -449 )">
    <path d="M 32.3619791666666 1.89732142857144  L 41.0963541666666 10.6026785714286  C 41.6189236111111 11.1235119047619  42.0668402777778 11.8303571428571  42.4401041666666 12.7232142857143  C 42.8133680555555 13.6160714285714  43 14.4345238095239  43 15.1785714285714  L 43 47.3214285714286  C 43 48.0654761904761  42.7387152777778 48.6979166666666  42.2161458333334 49.21875  C 41.6935763888889 49.7395833333334  41.0590277777778 50  40.3125 50  L 2.6875 50  C 1.94097222222217 50  1.30642361111109 49.7395833333334  0.783854166666629 49.21875  C 0.261284722222172 48.6979166666666  0 48.0654761904761  0 47.3214285714286  L 0 2.67857142857144  C 0 1.93452380952385  0.261284722222172 1.30208333333337  0.783854166666629 0.78125  C 1.30642361111109 0.260416666666629  1.94097222222217 0  2.6875 0  L 27.7708333333334 0  C 28.5173611111111 0  29.3385416666666 0.186011904761926  30.234375 0.558035714285666  C 31.1302083333334 0.930059523809518  31.8394097222222 1.37648809523807  32.3619791666666 1.89732142857144  Z M 29.814453125 4.40848214285711  C 29.5904947916666 4.18526785714289  29.2078993055555 3.9806547619047  28 3.79464285714289  L 28 15  L 39.1927083333334 15  C 39.0060763888889 13.7462797619047  38.80078125 13.3649553571429  38.5768229166666 13.1417410714286  L 29.814453125 4.40848214285711  Z M 4 46  L 39 46  L 39 18  L 27.7708333333334 18  C 27.0243055555555 17.8571428571429  26.3897569444445 17.5967261904761  25.8671875 17.0758928571429  C 25.3446180555555 16.5550595238095  25.0833333333334 15.922619047619  25 15.1785714285714  L 25 4  L 4 4  L 4 46  Z M 10.75 24.1071428571429  L 10.75 22.3214285714286  C 10.75 22.0610119047619  10.833984375 21.8470982142857  11.001953125 21.6796875  C 11.169921875 21.5122767857143  11.3845486111111 21.4285714285714  11.6458333333334 22  L 31.3541666666666 22  C 31.6154513888889 21.4285714285714  31.830078125 21.5122767857143  31.998046875 21.6796875  C 32.166015625 21.8470982142857  32.25 22.0610119047619  32.25 22.3214285714286  L 32.25 24.1071428571429  C 32.25 24.3675595238095  32.166015625 24.5814732142857  31.998046875 24.7488839285714  C 31.830078125 24.9162946428571  31.6154513888889 25  31.3541666666666 25  L 11.6458333333334 25  C 11.3845486111111 25  11.169921875 24.9162946428571  11.001953125 24.7488839285714  C 10.833984375 24.5814732142857  10.75 24.3675595238095  10.75 24.1071428571429  Z M 11.6458333333334 28  L 31.3541666666666 28  C 31.6154513888889 28.5714285714286  31.830078125 28.6551339285714  31.998046875 28.8225446428571  C 32.166015625 28.9899553571429  32.25 29.203869047619  32.25 29.4642857142857  L 32.25 31.25  C 32.25 31.5104166666666  32.166015625 31.7243303571429  31.998046875 31.8917410714286  C 31.830078125 32.0591517857143  31.6154513888889 32.1428571428571  31.3541666666666 32  L 11.6458333333334 32  C 11.3845486111111 32.1428571428571  11.169921875 32.0591517857143  11.001953125 31.8917410714286  C 10.833984375 31.7243303571429  10.75 31.5104166666666  10.75 31.25  L 10.75 29.4642857142857  C 10.75 29.203869047619  10.833984375 28.9899553571429  11.001953125 28.8225446428571  C 11.169921875 28.6551339285714  11.3845486111111 28.5714285714286  11.6458333333334 28  Z M 11.6458333333334 35  L 31.3541666666666 35  C 31.6154513888889 35.7142857142857  31.830078125 35.7979910714286  31.998046875 35.9654017857143  C 32.166015625 36.1328125  32.25 36.3467261904761  32.25 36.6071428571429  L 32.25 38.3928571428571  C 32.25 38.6532738095239  32.166015625 38.8671875  31.998046875 39.0345982142857  C 31.830078125 39.2020089285714  31.6154513888889 39.2857142857143  31.3541666666666 39  L 11.6458333333334 39  C 11.3845486111111 39.2857142857143  11.169921875 39.2020089285714  11.001953125 39.0345982142857  C 10.833984375 38.8671875  10.75 38.6532738095239  10.75 38.3928571428571  L 10.75 36.6071428571429  C 10.75 36.3467261904761  10.833984375 36.1328125  11.001953125 35.9654017857143  C 11.169921875 35.7979910714286  11.3845486111111 35.7142857142857  11.6458333333334 35  Z " fill-rule="nonzero" fill="#7cc5c5" stroke="none" transform="matrix(1 0 0 1 1090 449 )" />
  </g>
</svg>