<?xml version="1.0" encoding="utf-8"?>
<svg version="1.1" xmlns:xlink="http://www.w3.org/1999/xlink" width="22px" height="22px" xmlns="http://www.w3.org/2000/svg">
  <defs>
    <filter x="384px" y="626px" width="22px" height="22px" filterUnits="userSpaceOnUse" id="filter91">
      <feOffset dx="1" dy="1" in="SourceAlpha" result="shadowOffsetInner" />
      <feGaussianBlur stdDeviation="2.5" in="shadowOffsetInner" result="shadowGaussian" />
      <feComposite in2="shadowGaussian" operator="atop" in="SourceAlpha" result="shadowComposite" />
      <feColorMatrix type="matrix" values="0 0 0 0 0  0 0 0 0 0  0 0 0 0 0  0 0 0 0.698039215686274 0  " in="shadowComposite" />
    </filter>
    <g id="widget92">
      <path d="M 394 630  C 397.36 630  400 632.64  400 636  C 400 639.36  397.36 642  394 642  C 390.64 642  388 639.36  388 636  C 388 632.64  390.64 630  394 630  Z " fill-rule="nonzero" fill="#7cc5c5" stroke="none" />
      <path d="M 394 630.5  C 397.08 630.5  399.5 632.92  399.5 636  C 399.5 639.08  397.08 641.5  394 641.5  C 390.92 641.5  388.5 639.08  388.5 636  C 388.5 632.92  390.92 630.5  394 630.5  Z " stroke-width="1" stroke="#ffffff" fill="none" />
    </g>
  </defs>
  <g transform="matrix(1 0 0 1 -384 -626 )">
    <use xlink:href="#widget92" filter="url(#filter91)" />
    <use xlink:href="#widget92" />
  </g>
</svg>