<?xml version="1.0" encoding="utf-8"?>
<svg version="1.1" xmlns:xlink="http://www.w3.org/1999/xlink" width="30px" height="31px" xmlns="http://www.w3.org/2000/svg">
  <g transform="matrix(1 0 0 1 -582 -166 )">
    <path d="M 18.3984375 19.01171875  C 19.9789663461538 17.3785056089744  20.7692307692307 15.4130608974359  20.7692307692307 13.1153846153846  C 20.7692307692307 10.8177083333333  19.9789663461538 8.85226362179488  18.3984375 7.21905048076923  C 16.8179086538462 5.58583733974359  14.9158653846155 4.76923076923077  12.6923076923076 4.76923076923077  C 10.46875 4.76923076923077  8.56670673076928 5.58583733974359  6.98617788461547 7.21905048076923  C 5.40564903846143 8.85226362179488  4.61538461538453 10.8177083333333  4.61538461538453 13.1153846153846  C 4.61538461538453 15.4130608974359  5.40564903846143 17.3785056089744  6.98617788461547 19.01171875  C 8.56670673076928 20.6449318910256  10.46875 21.4615384615385  12.6923076923076 21.4615384615385  C 14.9158653846155 21.4615384615385  16.8179086538462 20.6449318910256  18.3984375 19.01171875  Z M 29.3329326923076 26.9387019230769  C 29.7776442307693 27.3982371794872  30 27.9571314102564  30 28.6153846153846  C 30 29.261217948718  29.7716346153845 29.8201121794872  29.3149038461538 30.2920673076923  C 28.8581730769231 30.7640224358974  28.3173076923076 31  27.6923076923076 31  C 27.0432692307693 31  26.5024038461538 30.7640224358974  26.0697115384614 30.2920673076923  L 19.8858173076924 23.9206730769231  C 17.734375 25.4607371794872  15.3365384615386 26.2307692307692  12.6923076923076 26.2307692307692  C 10.9735576923076 26.2307692307692  9.32992788461547 25.8861177884615  7.76141826923072 25.1968149038462  C 6.19290865384619 24.5075120192308  4.84074519230762 23.5760216346154  3.70492788461547 22.40234375  C 2.56911057692309 21.2286658653846  1.66766826923072 19.8314302884615  1.00060096153857 18.2106370192308  C 0.333533653846189 16.58984375  0 14.8914262820513  0 13.1153846153846  C 0 11.3393429487179  0.333533653846189 9.64092548076923  1.00060096153857 8.02013221153847  C 1.66766826923072 6.39933894230769  2.56911057692309 5.00210336538461  3.70492788461547 3.82842548076923  C 4.84074519230762 2.65474759615385  6.19290865384619 1.72325721153847  7.76141826923072 1.03395432692308  C 9.32992788461547 0.344651442307693  10.9735576923076 0  12.6923076923076 0  C 14.4110576923076 0  16.0546875 0.344651442307693  17.6231971153845 1.03395432692308  C 19.1917067307693 1.72325721153847  20.5438701923076 2.65474759615385  21.6796875 3.82842548076923  C 22.8155048076924 5.00210336538461  23.7169471153845 6.39933894230769  24.3840144230769 8.02013221153847  C 25.0510817307693 9.64092548076923  25.3846153846155 11.3393429487179  25.3846153846155 13.1153846153846  C 25.3846153846155 15.8477564102564  24.6394230769231 18.3255208333333  23.1490384615386 20.5486778846154  L 29.3329326923076 26.9387019230769  Z " fill-rule="nonzero" fill="#63b1b7" stroke="none" transform="matrix(1 0 0 1 582 166 )" />
  </g>
</svg>