<?xml version="1.0" encoding="utf-8"?>
<svg version="1.1" xmlns:xlink="http://www.w3.org/1999/xlink" width="272px" height="34px" xmlns="http://www.w3.org/2000/svg">
  <g>
    <path d="M 0.5 17  A 16.5 16.5 0 0 1 17 0.5 L 255 0.5  A 16.5 16.5 0 0 1 271.5 17 A 16.5 16.5 0 0 1 255 33.5 L 17 33.5  A 16.5 16.5 0 0 1 0.5 17 Z " fill-rule="nonzero" fill="#ffffff" stroke="none" fill-opacity="0" />
    <path d="M 0.5 17  A 16.5 16.5 0 0 1 17 0.5 L 255 0.5  A 16.5 16.5 0 0 1 271.5 17 A 16.5 16.5 0 0 1 255 33.5 L 17 33.5  A 16.5 16.5 0 0 1 0.5 17 Z " stroke-width="1" stroke="#3b9da0" fill="none" />
  </g>
</svg>