<?xml version="1.0" encoding="utf-8"?>
<svg version="1.1" xmlns:xlink="http://www.w3.org/1999/xlink" width="282px" height="44px" xmlns="http://www.w3.org/2000/svg">
  <defs>
    <filter x="-5px" y="-5px" width="282px" height="44px" filterUnits="userSpaceOnUse" id="filter33">
      <feOffset dx="0" dy="0" in="SourceAlpha" result="shadowOffsetInner" />
      <feGaussianBlur stdDeviation="2.5" in="shadowOffsetInner" result="shadowGaussian" />
      <feComposite in2="shadowGaussian" operator="atop" in="SourceAlpha" result="shadowComposite" />
      <feColorMatrix type="matrix" values="0 0 0 0 1  0 0 0 0 1  0 0 0 0 1  0 0 0 1 0  " in="shadowComposite" />
    </filter>
    <g id="widget34">
      <path d="M 0.5 17  A 16.5 16.5 0 0 1 17 0.5 L 255 0.5  A 16.5 16.5 0 0 1 271.5 17 A 16.5 16.5 0 0 1 255 33.5 L 17 33.5  A 16.5 16.5 0 0 1 0.5 17 Z " fill-rule="nonzero" fill="#ffffff" stroke="none" fill-opacity="0" />
      <path d="M 0.5 17  A 16.5 16.5 0 0 1 17 0.5 L 255 0.5  A 16.5 16.5 0 0 1 271.5 17 A 16.5 16.5 0 0 1 255 33.5 L 17 33.5  A 16.5 16.5 0 0 1 0.5 17 Z " stroke-width="1" stroke="#d7d7d7" fill="none" />
    </g>
  </defs>
  <g transform="matrix(1 0 0 1 5 5 )">
    <use xlink:href="#widget34" filter="url(#filter33)" />
    <use xlink:href="#widget34" />
  </g>
</svg>