<?xml version="1.0" encoding="utf-8"?>
<svg version="1.1" xmlns:xlink="http://www.w3.org/1999/xlink" width="16px" height="16px" xmlns="http://www.w3.org/2000/svg">
  <g transform="matrix(1 0 0 1 -259 -411 )">
    <path d="M 15.5000155048077 12.0384460336538  C 15.5000155048077 11.719413233173  15.2421097235576 11.4615384615385  14.923076923077 11.4615384615385  C 14.6040441225962 11.4615384615385  14.3461693509615 11.719413233173  14.3461693509615 12.0384460336538  L 14.3461693509615 14.3461383413461  L 1.65386165865391 14.3461383413461  L 1.65386165865391 12.0384460336538  C 1.65386165865391 11.719413233173  1.39539763221148 11.4615384615385  1.07692307692298 11.4615384615385  C 0.758448521634705 11.4615384615385  0.49998449519228 11.719413233173  0.49998449519228 12.0384460336538  L 0.49998449519228 14.9230769230769  C 0.49998449519228 15.2421097235577  0.758448521634705 15.4999844951923  1.07692307692298 15.4999844951923  L 14.923076923077 15.4999844951923  C 15.2421097235576 15.4999844951923  15.5000155048077 15.2421097235577  15.5000155048077 14.9230769230769  L 15.5000155048077 12.0384460336538  Z M 2.87221754807695 8.3364543269231  L 7.54367187499997 13.0112079326923  C 7.65847956730761 13.1265745192308  7.80849759615387 13.1819591346154  7.95792067307684 13.1808233173077  C 7.9781129807692 13.1825540865385  7.99542067307698 13.1923617788461  8.01561298076922 13.1923617788461  C 8.09986177884605 13.1923617788461  8.1783052884615 13.1727463942308  8.25042067307697 13.1404387019231  C 8.32311298076911 13.1127463942307  8.39234375000001 13.0706310096154  8.45120793269234 13.0118028846153  L 13.1266105769231 8.34009615384616  C 13.3522055288461 8.1150961538462  13.352764423077 7.74992187500004  13.127205528846 7.52432692307696  C 13.0147055288462 7.41125  12.8670132211539 7.35472956730769  12.7187439903846 7.35471153846157  C 12.5710336538461 7.35471153846157  12.4239362980769 7.41125  12.310859375 7.52317307692306  L 8.59259014423071 11.2400360576923  L 8.59259014423071 1.07694110576921  C 8.59259014423071 0.75790264423074  8.33412860576925 0.500036057692284  8.01564903846156 0.500036057692284  C 7.69716947115387 0.500036057692284  7.43870793269241 0.75790264423074  7.43870793269241 1.07694110576921  L 7.43870793269241 11.2683052884615  L 3.69033052884606 7.52299278846158  C 3.57781250000005 7.40991586538462  3.42898437500003 7.35280048076925  3.28129206730773 7.35280048076925  C 3.13359975961532 7.35280048076925  2.98706129807692 7.40874399038466  2.87456129807697 7.52066706730767  C 2.64784855769233 7.74510817307691  2.64727163461532 8.11087740384619  2.87227163461546 8.33643629807693  Z " fill-rule="nonzero" fill="#7cc5c5" stroke="none" transform="matrix(1 0 0 1 259 411 )" />
  </g>
</svg>