<?xml version="1.0" encoding="utf-8"?>
<svg version="1.1" xmlns:xlink="http://www.w3.org/1999/xlink" width="20px" height="15px" xmlns="http://www.w3.org/2000/svg">
  <g transform="matrix(1 0 0 1 -196 -413 )">
    <path d="M 9.55934334879555 14.5139507995605  C 4.27986116943362 14.5139507995605  0.000948113606796142 9.25733353271482  0.000948113606796142 7.5  C 0.000948113606796142 5.17929219360349  4.27986116943362 0.486311535644518  9.55934334879555 0.486311535644518  C 14.839438449707 0.486311535644518  19.1183323575846 5.72951290283203  19.1183323575846 7.5  C 19.1183323575846 9.34925870361326  14.839438449707 14.5139507995605  9.55934334879555 14.5139507995605  Z M 9.55934334879555 1.6552190185547  C 4.93972461832686 1.6552190185547  1.19466293782546 5.56659210205078  1.19466293782546 7.50001874999998  C 1.19466293782546 8.96458201904295  4.93974376627602 13.3450807983398  9.55934334879555 13.3450807983398  C 14.1790003938802 13.3450807983398  17.9234874674479 8.89036360473636  17.9234874674479 7.50001874999998  C 17.9234683007812 6.07253657226568  14.1790003938802 1.6552190185547  9.55934334879555 1.6552190185547  Z M 9.55934334879555 11.0072658325196  C 7.5791975618489 11.0072658325196  5.97415744222008 9.43717410278322  5.97415744222008 7.50001874999998  C 5.97415744222008 5.56400635986324  7.5791975618489 3.99329630126954  9.55934334879555 3.99329630126954  C 11.5383590698242 3.99329630126954  13.1439546484374 5.56400635986324  13.1439546484374 7.50001874999998  C 13.1439546484374 9.43717410278322  11.5383590698242 11.0072658325196  9.55934334879555 11.0072658325196  Z M 9.55934334879555 5.16220378417972  C 8.23904184407547 5.16220378417972  7.16963440185543 6.20868176879878  7.16963440185543 7.50001874999998  C 7.16963440185543 8.7916180480957  8.23904184407547 9.83779623413085  9.55934334879555 9.83779623413085  C 10.879070246582 9.83779623413085  11.9491097583007 8.7916180480957  11.9491097583007 7.50001874999998  C 11.9490905916341 6.2086630187988  10.879070246582 5.16220378417972  9.55934334879555 5.16220378417972  Z " fill-rule="nonzero" fill="#7cc5c5" stroke="none" transform="matrix(1 0 0 1 196 413 )" />
  </g>
</svg>