<?xml version="1.0" encoding="utf-8"?>
<svg version="1.1" xmlns:xlink="http://www.w3.org/1999/xlink" width="40px" height="40px" xmlns="http://www.w3.org/2000/svg">
  <defs>
    <filter x="317px" y="333px" width="40px" height="40px" filterUnits="userSpaceOnUse" id="filter81">
      <feOffset dx="1" dy="1" in="SourceAlpha" result="shadowOffsetInner" />
      <feGaussianBlur stdDeviation="2.5" in="shadowOffsetInner" result="shadowGaussian" />
      <feComposite in2="shadowGaussian" operator="atop" in="SourceAlpha" result="shadowComposite" />
      <feColorMatrix type="matrix" values="0 0 0 0 0  0 0 0 0 0  0 0 0 0 0  0 0 0 0.698039215686274 0  " in="shadowComposite" />
    </filter>
    <g id="widget82">
      <path d="M 336 337  C 344.4 337  351 343.6  351 352  C 351 360.4  344.4 367  336 367  C 327.6 367  321 360.4  321 352  C 321 343.6  327.6 337  336 337  Z " fill-rule="nonzero" fill="#7cc5c5" stroke="none" />
      <path d="M 336 337.5  C 344.12 337.5  350.5 343.88  350.5 352  C 350.5 360.12  344.12 366.5  336 366.5  C 327.88 366.5  321.5 360.12  321.5 352  C 321.5 343.88  327.88 337.5  336 337.5  Z " stroke-width="1" stroke="#7cc5c5" fill="none" />
    </g>
  </defs>
  <g transform="matrix(1 0 0 1 -317 -333 )">
    <use xlink:href="#widget82" filter="url(#filter81)" />
    <use xlink:href="#widget82" />
  </g>
</svg>