<?xml version="1.0" encoding="utf-8"?>
<svg version="1.1" xmlns:xlink="http://www.w3.org/1999/xlink" width="44px" height="51px" xmlns="http://www.w3.org/2000/svg">
  <g transform="matrix(1 0 0 1 -333 -930 )">
    <path d="M 33.1145833333333 1.93526785714289  L 42.0520833333333 10.8147321428571  C 42.5868055555555 11.3459821428571  43.0451388888889 12.0669642857142  43.4270833333333 12.9776785714287  C 43.8090277777778 13.8883928571429  44 14.7232142857142  44 15.4821428571429  L 44 48.2678571428571  C 44 49.0267857142858  43.7326388888889 49.671875  43.1979166666667 50.203125  C 42.6631944444445 50.734375  42.0138888888889 51  41.25 51  L 2.75 51  C 1.98611111111109 51  1.33680555555554 50.734375  0.802083333333315 50.203125  C 0.267361111111086 49.671875  0 49.0267857142858  0 48.2678571428571  L 0 2.73214285714289  C 0 1.97321428571422  0.267361111111086 1.328125  0.802083333333315 0.796875  C 1.33680555555554 0.265625  1.98611111111109 0  2.75 0  L 28.4166666666667 0  C 29.1805555555555 0  30.0208333333333 0.18973214285711  30.9375 0.569196428571331  C 31.8541666666667 0.948660714285779  32.5798611111111 1.40401785714289  33.1145833333333 1.93526785714289  Z M 30.5078125 4.49665178571422  C 30.2786458333333 4.26897321428578  29.8871527777778 4.06026785714289  29 3.87053571428578  L 29 15  L 40.1041666666667 15  C 39.9131944444445 14.0212053571429  39.703125 13.6322544642858  39.4739583333333 13.4045758928571  L 30.5078125 4.49665178571422  Z M 4 47  L 40 47  L 40 19  L 28.4166666666667 19  C 27.6527777777778 18.2142857142858  27.0034722222222 17.9486607142858  26.46875 17.4174107142858  C 25.9340277777778 16.8861607142858  25.6666666666667 16.2410714285713  25 15.4821428571429  L 25 4  L 4 4  L 4 47  Z M 11 24.5892857142858  L 11 22.7678571428571  C 11 22.5022321428571  11.0859375 22.2840401785713  11.2578125 22.11328125  C 11.4296875 21.9425223214287  11.6493055555555 21.8571428571429  11.9166666666667 22  L 32.0833333333333 22  C 32.3506944444445 21.8571428571429  32.5703125 21.9425223214287  32.7421875 22.11328125  C 32.9140625 22.2840401785713  33 22.5022321428571  33 22.7678571428571  L 33 24.5892857142858  C 33 24.8549107142858  32.9140625 25.0731026785713  32.7421875 25.2438616071429  C 32.5703125 25.4146205357142  32.3506944444445 25.5  32.0833333333333 25  L 11.9166666666667 25  C 11.6493055555555 25.5  11.4296875 25.4146205357142  11.2578125 25.2438616071429  C 11.0859375 25.0731026785713  11 24.8549107142858  11 24.5892857142858  Z M 11.9166666666667 29  L 32.0833333333333 29  C 32.3506944444445 29.1428571428571  32.5703125 29.2282366071429  32.7421875 29.3989955357142  C 32.9140625 29.5697544642858  33 29.7879464285713  33 30.0535714285713  L 33 31.875  C 33 32.140625  32.9140625 32.3588169642858  32.7421875 32.5295758928571  C 32.5703125 32.7003348214287  32.3506944444445 32.7857142857142  32.0833333333333 32  L 11.9166666666667 32  C 11.6493055555555 32.7857142857142  11.4296875 32.7003348214287  11.2578125 32.5295758928571  C 11.0859375 32.3588169642858  11 32.140625  11 31.875  L 11 30.0535714285713  C 11 29.7879464285713  11.0859375 29.5697544642858  11.2578125 29.3989955357142  C 11.4296875 29.2282366071429  11.6493055555555 29.1428571428571  11.9166666666667 29  Z M 11.9166666666667 36  L 32.0833333333333 36  C 32.3506944444445 36.4285714285713  32.5703125 36.5139508928571  32.7421875 36.6847098214287  C 32.9140625 36.85546875  33 37.0736607142858  33 37.3392857142858  L 33 39.1607142857142  C 33 39.4263392857142  32.9140625 39.64453125  32.7421875 39.8152901785713  C 32.5703125 39.9860491071429  32.3506944444445 40.0714285714287  32.0833333333333 40  L 11.9166666666667 40  C 11.6493055555555 40.0714285714287  11.4296875 39.9860491071429  11.2578125 39.8152901785713  C 11.0859375 39.64453125  11 39.4263392857142  11 39.1607142857142  L 11 37.3392857142858  C 11 37.0736607142858  11.0859375 36.85546875  11.2578125 36.6847098214287  C 11.4296875 36.5139508928571  11.6493055555555 36.4285714285713  11.9166666666667 36  Z " fill-rule="nonzero" fill="#7cc5c5" stroke="none" transform="matrix(1 0 0 1 333 930 )" />
  </g>
</svg>