<?xml version="1.0" encoding="utf-8"?>
<svg version="1.1" xmlns:xlink="http://www.w3.org/1999/xlink" width="8px" height="14px" xmlns="http://www.w3.org/2000/svg">
  <g transform="matrix(1 0 0 1 -1077 -911 )">
    <path d="M 7.49732178013392 7.35485822544644  C 7.54285138392856 7.30713997767856  7.56695527901786 7.24873769531251  7.59802829799105 7.1941079296875  C 7.60661008928571 7.17749149553578  7.62051950892851 7.16358207589286  7.62803578124999 7.1464184933036  C 7.77536621651791 6.83997927455357  7.72712959821433 6.46500087053573  7.4662487779018 6.21854782366074  L 1.55249871093747 0.625175189732147  C 1.22999022321426 0.320348655133898  0.721619598214374 0.334805239955358  0.416245898437523 0.656795357142869  C 0.111419363839332 0.979303844866081  0.125357578124976 1.48767446986608  0.447866065848189 1.79304816964287  L 5.7541229129464 6.81267878906255  L 0.468744592633925 11.9067809598214  C 0.149461473214274 12.2148040680804  0.139814146205367 12.7232034877233  0.447866065848189 13.0430337723215  C 0.605362181919645 13.2069518303572  0.815904157366049 13.2889396540179  1.02644613281257 13.2889396540179  C 1.22734079799113 13.2889396540179  1.42823544642863 13.2139497321429  1.58411887834814 13.06394109375  L 7.44430471540181 7.41590991629465  C 7.45556472656256 7.40464990513391  7.45982681919645 7.38912780133927  7.47108683035708 7.37734943638395  C 7.47966862165174 7.36931481026789  7.4887687834821 7.36341122209825  7.49732178013392 7.35485822544644  Z " fill-rule="nonzero" fill="#7cc5c5" stroke="none" transform="matrix(1 0 0 1 1077 911 )" />
  </g>
</svg>