<?xml version="1.0" encoding="utf-8"?>
<svg version="1.1" xmlns:xlink="http://www.w3.org/1999/xlink" width="201px" height="199px" xmlns="http://www.w3.org/2000/svg">
  <defs>
    <filter x="647px" y="169px" width="201px" height="199px" filterUnits="userSpaceOnUse" id="filter45">
      <feOffset dx="5" dy="5" in="SourceAlpha" result="shadowOffsetInner" />
      <feGaussianBlur stdDeviation="2.5" in="shadowOffsetInner" result="shadowGaussian" />
      <feComposite in2="shadowGaussian" operator="atop" in="SourceAlpha" result="shadowComposite" />
      <feColorMatrix type="matrix" values="0 0 0 0 0  0 0 0 0 0  0 0 0 0 0  0 0 0 0.349019607843137 0  " in="shadowComposite" />
    </filter>
    <g id="widget46">
      <path d="M 743.000161689423 169.501275399715  C 795.234203432817 169.767719654929  837.5 211.747425640663  837.5 263.5  C 837.5 315.417658027287  794.964129092392 357.5  742.5 357.5  C 729.016431332967 357.5  715.689036807043 354.660513726291  703.403703733088 349.170857052036  L 742.953764123214 263.709995524914  A 0.5 0.5 0 0 0 743 263.5 L 743.000161290635 169.501275397681  Z " fill-rule="nonzero" fill="#7cc5c5" stroke="none" fill-opacity="0.996078431372549" />
      <path d="M 743.000161689423 169.501275399715  C 795.234203432817 169.767719654929  837.5 211.747425640663  837.5 263.5  C 837.5 315.417658027287  794.964129092392 357.5  742.5 357.5  C 729.016431332967 357.5  715.689036807043 354.660513726291  703.403703733088 349.170857052036  L 742.953764123214 263.709995524914  A 0.5 0.5 0 0 0 743 263.5 L 743.000161290635 169.501275397681  Z " stroke-width="1" stroke="#ffffff" fill="none" />
    </g>
  </defs>
  <g transform="matrix(1 0 0 1 -647 -169 )">
    <use xlink:href="#widget46" filter="url(#filter45)" />
    <use xlink:href="#widget46" />
  </g>
</svg>