<?xml version="1.0" encoding="utf-8"?>
<svg version="1.1" xmlns:xlink="http://www.w3.org/1999/xlink" width="18px" height="20px" xmlns="http://www.w3.org/2000/svg">
  <g transform="matrix(1 0 0 1 -1271 -16 )">
    <path d="M 1.68512318960336 19.2629443659856  C 1.56495108173078 19.3365982196514  1.42927290414664 19.3753634164663  1.29747122145432 19.3753634164663  C 1.05712698317308 19.3753634164663  0.824535802283663 19.2551913085937  0.684981084735568 19.0381061748798  C 0.471772490985586 18.7008489332933  0.572562011718759 18.2550491586538  0.909819230769244 18.0418405649038  C 1.03386787860578 17.964310171274  3.98777605168269 16.115210163762  6.33307060546875 15.9989145733173  L 6.34470015775241 15.9989145733173  L 6.34470015775241 15.5957565129207  C 3.63113622295674 14.4715657376803  1.84406053936297 11.637829672476  1.84406053936297 8.37379990234375  C 1.84406053936297 4.10187494741587  5.13134943659855 0.624636583533654  9.17455970552885 0.624636583533654  C 13.2177699744591 0.624636583533654  16.5050588716947 4.09799842998798  16.5050588716947 8.37379990234375  C 16.5050588716947 11.6339531550481  14.7955135817308 14.3940353440505  12.1090852914663 15.54923828125  L 12.1090852914663 16.0066676307091  C 14.4698859149639 16.2198762244591  17.4005349834736 17.9604336763822  17.528460148738 18.0340875525841  C 17.8695939077524 18.2395431114784  17.9820129807692 18.6814663686899  17.776557421875 19.0226001277043  C 17.5711018629808 19.3637338867188  17.1291786057692 19.4761529597356  16.7880448467548 19.2706974008414  C 16.7609092022236 19.2551913311298  13.9426792292668 17.5844112379808  11.9617775390625 17.4371034855769  L 11.3880525991586 17.4371034855769  C 10.9887710561899 17.4371034855769  10.6670198843149 17.115352336238  10.6670198843149 16.7160707707332  L 10.6670198843149 15.049167195012  C 10.6670198843149 14.7429221153846  10.8608458909255 14.4676891977164  11.1554613957332 14.3668996995192  C 13.5317681114784 13.5489540039062  15.0629934645433 11.1959064152644  15.0629934645433 8.36604686748798  C 15.0668699594351 4.89656151592548  12.4269599008413 2.0667019906851  9.17843622295672 2.0667019906851  C 5.92991252253606 2.0667019906851  3.2900024639423 4.89656153846154  3.2900024639423 8.37379990234375  C 3.2900024639423 11.2075359675481  4.89875823317308 13.6303609149639  7.29057101862981 14.4056648963341  C 7.58906306340143 14.5025778996394  7.79064208233171 14.7778108173077  7.79064208233171 15.0918089317909  L 7.79064208233171 16.7199472881611  C 7.79064208233171 17.1192288311298  7.46889093299279 17.4409800030048  7.06960936748797 17.4409800030048  L 6.37183577974758 17.4409800030048  C 4.43745234375001 17.5378930063101  1.71225883413462 19.2435617563101  1.68512318960336 19.2629443659856  Z " fill-rule="nonzero" fill="#ffffff" stroke="none" fill-opacity="0.8" transform="matrix(1 0 0 1 1271 16 )" />
  </g>
</svg>