<?xml version="1.0" encoding="utf-8"?>
<svg version="1.1" xmlns:xlink="http://www.w3.org/1999/xlink" width="21px" height="20px" xmlns="http://www.w3.org/2000/svg">
  <g transform="matrix(1 0 0 1 -1353 -17 )">
    <path d="M 10.930152875 19.128641015625  C 10.78501596875 19.273777921875  10.591500078125 19.350377953125  10.3979842109375 19.350377953125  C 10.20446834375 19.350377953125  10.01498403125 19.2778095  9.86581554687501 19.128641015625  L 7.61619350000001 16.87901896875  C 7.32188810937498 16.584713578125  7.32188810937498 16.1130186328125  7.61619350000001 15.8187132421875  C 7.91049889062498 15.5244078515625  8.38219383593753 15.5244078515625  8.6764992265625 15.8187132421875  L 10.3979841875 17.540198203125  L 12.1194691484375 15.8187132421875  C 12.2605744765625 15.6776079140625  12.450058765625 15.5969763046875  12.6516378125 15.5969763046875  L 17.90075590625 15.5969763046875  C 18.3160087109375 15.5969763046875  18.6506299296875 15.262355109375  18.6506299296875 14.84710228125  L 18.6506299296875 2.84911809375  C 18.6506299296875 2.4378968671875  18.316008734375 2.0992440703125  17.90075590625 2  L 2.9032756484375 2  C 2.49205442187503 2.0992440703125  2.15340162500002 2.43789684375  2.15340162500002 2.84911809375  L 2.15340162500002 14.8471023046875  C 2.15340162500002 15.262355109375  2.49205439843752 15.596976328125  2.9032756484375 15.596976328125  L 5.1528976953125 15.596976328125  C 5.5681505 15.596976328125  5.90277171874999 15.9315975234375  5.90277171874999 16.3468503515625  C 5.90277171874999 16.7621031796875  5.56815052343751 17.096724375  5.1528976953125 17.096724375  L 2.9032756484375 17.096724375  C 1.66154878906252 17.096724375  0.653653601562496 16.0888291875  1 14.847102328125  L 1 2.84911809375  C 0.653653625000004 1.607391234375  1.66154881250003 0.599496046875  2.90327567187501 0.599496046875  L 17.9007559296875 0.599496046875  C 19.1424827890625 0.599496046875  20.1503779765625 1.607391234375  20 2.84911809375  L 20 14.8471023046875  C 20.1503779765625 16.0888291640625  19.1424827890625 17.0967243515625  17.9007559296875 17.0967243515625  L 12.9580379609375 17.0967243515625  L 10.930152875 19.128641015625  Z M 7.39848816406248 8.4731731875  C 7.39848816406248 9.0940366171875  6.89454057031253 9.5979842109375  6.27367714062501 9.5979842109375  C 5.65281371093749 9.5979842109375  5.14886611718748 9.0940366171875  5.14886611718748 8.4731731875  C 5.14886611718748 7.8523097578125  5.65281371093749 7.3483621640625  6.27367714062501 7.3483621640625  C 6.89454057031253 7.3483621640625  7.39848816406248 7.8523097578125  7.39848816406248 8.4731731875  Z M 11.897732234375 8.4731731875  C 11.897732234375 9.0940366171875  11.393784640625 9.5979842109375  10.7729212109375 9.5979842109375  C 10.15205778125 9.5979842109375  9.64811018749998 9.0940366171875  9.64811018749998 8.4731731875  C 9.64811018749998 7.8523097578125  10.15205778125 7.3483621640625  10.7729212109375 7.3483621640625  C 11.393784640625 7.3483621640625  11.897732234375 7.8523097578125  11.897732234375 8.4731731875  Z M 16.40100790625 8.4731731875  C 16.40100790625 9.0940366171875  15.893028734375 9.5979842109375  15.2761968828125 9.5979842109375  C 14.655333453125 9.5979842109375  14.151385859375 9.0940366171875  14.151385859375 8.4731731875  C 14.151385859375 7.8523097578125  14.655333453125 7.3483621640625  15.2761968828125 7.3483621640625  C 15.8970603125 7.3483621640625  16.40100790625 7.8523097578125  16.40100790625 8.4731731875  Z " fill-rule="nonzero" fill="#ffffff" stroke="none" fill-opacity="0.8" transform="matrix(1 0 0 1 1353 17 )" />
  </g>
</svg>