<?xml version="1.0" encoding="utf-8"?>
<svg version="1.1" xmlns:xlink="http://www.w3.org/1999/xlink" width="7px" height="14px" xmlns="http://www.w3.org/2000/svg">
  <g transform="matrix(1 0 0 1 -1268 -1198 )">
    <path d="M 6.56015655761712 7.35485822544638  C 6.59999496093747 7.30713997767862  6.62108586914064 7.24873769531246  6.6482747607422 7.19410792968756  C 6.6557838281251 7.17749149553583  6.66795457031253 7.16358207589292  6.67453130859371 7.1464184933036  C 6.80344543945307 6.83997927455357  6.76123839843763 6.46500087053573  6.53296768066411 6.21854782366074  L 1.35843637207017 0.62517518973209  C 1.07624144531246 0.320348655133898  0.631417148437549 0.334805239955358  0.364215161132734 0.656795357142869  C 0.0974919433595005 0.979303844866081  0.109687880859383 1.48767446986608  0.391882807617094 1.79304816964282  L 5.03485754882809 6.8126787890626  L 0.410151518554585 11.9067809598214  C 0.13077878906256 12.2148040680804  0.122337377929625 12.7232034877233  0.391882807617094 13.0430337723215  C 0.529691909179746 13.2069518303572  0.713916137695378 13.2889396540179  0.89814036621101 13.2889396540179  C 1.07392319824226 13.2889396540179  1.24970601562495 13.213949732143  1.38610401855453 13.06394109375  L 6.51376662597659 7.4159099162946  C 6.52361913574214 7.40464990513397  6.52734846679687 7.38912780133933  6.53720097656242 7.37734943638395  C 6.54471004394532 7.36931481026795  6.5526726855469 7.36341122209819  6.56015655761712 7.35485822544638  Z " fill-rule="nonzero" fill="#ffffff" stroke="none" fill-opacity="0.8" transform="matrix(1 0 0 1 1268 1198 )" />
  </g>
</svg>