<?xml version="1.0" encoding="utf-8"?>
<svg version="1.1" xmlns:xlink="http://www.w3.org/1999/xlink" width="206px" height="36px" xmlns="http://www.w3.org/2000/svg">
  <defs>
    <filter x="1046px" y="7px" width="206px" height="36px" filterUnits="userSpaceOnUse" id="filter47">
      <feOffset dx="0" dy="0" in="SourceAlpha" result="shadowOffsetInner" />
      <feGaussianBlur stdDeviation="1.5" in="shadowOffsetInner" result="shadowGaussian" />
      <feComposite in2="shadowGaussian" operator="atop" in="SourceAlpha" result="shadowComposite" />
      <feColorMatrix type="matrix" values="0 0 0 0 1  0 0 0 0 1  0 0 0 0 1  0 0 0 0.8 0  " in="shadowComposite" />
    </filter>
    <g id="widget48">
      <path d="M 1049.5 25  A 14.5 14.5 0 0 1 1064 10.5 L 1234 10.5  A 14.5 14.5 0 0 1 1248.5 25 A 14.5 14.5 0 0 1 1234 39.5 L 1064 39.5  A 14.5 14.5 0 0 1 1049.5 25 Z " fill-rule="nonzero" fill="#ffffff" stroke="none" fill-opacity="0" />
      <path d="M 1049.5 25  A 14.5 14.5 0 0 1 1064 10.5 L 1234 10.5  A 14.5 14.5 0 0 1 1248.5 25 A 14.5 14.5 0 0 1 1234 39.5 L 1064 39.5  A 14.5 14.5 0 0 1 1049.5 25 Z " stroke-width="1" stroke="#ffffff" fill="none" />
    </g>
  </defs>
  <g transform="matrix(1 0 0 1 -1046 -7 )">
    <use xlink:href="#widget48" filter="url(#filter47)" />
    <use xlink:href="#widget48" />
  </g>
</svg>