<?xml version="1.0" encoding="utf-8"?>
<svg version="1.1" xmlns:xlink="http://www.w3.org/1999/xlink" width="19px" height="19px" xmlns="http://www.w3.org/2000/svg">
  <g transform="matrix(1 0 0 1 -1222 -16 )">
    <path d="M 18.2423208269392 18.2765172684152  C 18.5022137702288 18.0371421383231  18.5158923388672 17.6336241050502  18.2765172485352 17.3771507840402  L 15.2432927047294 14.1319082871791  C 16.4743646773856 12.651202277832  17.1480346201869 10.8045943188477  17.1480346201869 8.86223633963449  C 17.1480346201869 4.30385041852679  13.4377204914202 0.593536289760044  8.87591492815289 0.593536289760044  C 4.31752900704521 0.593536289760044  0.607214878278455 4.30385041852679  0.607214878278455 8.86223633963449  C 0.607214878278455 13.4206222607422  4.31752900704521 17.1309363895089  8.87591492815289 17.1309363895089  C 10.0693708171735 17.1309363895089  11.221790960519 16.8813023528181  12.2989789365932 16.3888735637556  C 12.6204254983956 16.2418288514927  12.7606309263393 15.8656679753767  12.6135862140765 15.5476410557338  C 12.4665415018136 15.2261944939314  12.0903806256975 15.0859890659877  11.7723537060547 15.2330337782506  C 10.8593086530413 15.6468107380022  9.88471002127511 15.8588286910575  8.87591492815289 15.8588286910575  C 5.01855608712333 15.8588286910575  1.87932257672992 12.7195951806641  1.87932257672992 8.86223633963449  C 1.87932257672992 5.00487749860491  5.01855608712333 1.8656439882115  8.87591492815289 1.8656439882115  C 12.7332737691825 1.8656439882115  15.8725072795759 5.00487749860491  15.8725072795759 8.86223633963449  C 15.8725072795759 10.6780674993025  15.178319483817 12.3981485989816  13.9233099961635 13.7078724009487  C 13.6805152437918 13.9609260797991  13.687354528111 14.364444113072  13.9404082268415 14.6072388654436  C 13.9609260996791 14.6243370961217  13.9848635947963 14.6311763804409  14.0053814676339 14.6482745912388  C 14.0224796983119 14.6722121062361  14.0327386247907 14.7029889055525  14.0532564976284 14.7269264205497  L 17.3429543624442 18.2457404690988  C 17.4660615597098 18.3791065928432  17.6370437869699 18.4474994956752  17.8080259943499 18.4474994956752  C 17.9653296330915 18.4474994956752  18.1192136296735 18.389365539202  18.2423208269392 18.2765172684152  Z " fill-rule="nonzero" fill="#ffffff" stroke="none" fill-opacity="0.8" transform="matrix(1 0 0 1 1222 16 )" />
  </g>
</svg>