<?xml version="1.0" standalone="no"?><!DOCTYPE svg PUBLIC "-//W3C//DTD SVG 1.1//EN" "http://www.w3.org/Graphics/SVG/1.1/DTD/svg11.dtd"><svg t="1649407851370" class="icon" viewBox="0 0 1024 1024" version="1.1" xmlns="http://www.w3.org/2000/svg" p-id="22363" xmlns:xlink="http://www.w3.org/1999/xlink" width="32" height="32"><defs><style type="text/css">@font-face { font-family: feedback-iconfont; src: url("//at.alicdn.com/t/font_1031158_u69w8yhxdu.woff2?t=1630033759944") format("woff2"), url("//at.alicdn.com/t/font_1031158_u69w8yhxdu.woff?t=1630033759944") format("woff"), url("//at.alicdn.com/t/font_1031158_u69w8yhxdu.ttf?t=1630033759944") format("truetype"); }
</style></defs><path d="M680.259 454.558c-21.835 0-39.598-17.335-39.598-38.662s17.763-38.662 39.598-38.662H885.84c21.834 0 39.597 17.334 39.597 38.662s-17.763 38.662-39.597 38.662H680.259zM716.018 300.202c-18.424 0-33.422-17.334-33.422-38.642s14.998-38.643 33.422-38.643h175.958c18.443 0 33.461 17.334 33.461 38.643s-15.018 38.642-33.461 38.642H716.018zM625.021 145.885c-21.832 0-39.598-17.335-39.598-38.662s17.766-38.662 39.598-38.662H885.84c21.834 0 39.597 17.335 39.597 38.662s-17.763 38.662-39.597 38.662H625.021z" fill="#F29600" p-id="22364"></path><path d="M729.419 557.495c-19.749 0-37.046 6.855-50.017 19.848-23.179 23.156-37.24 45.966-48.558 64.274-18.521 29.994-23.042 34.143-37.025 34.143-40.98 0-93.179-52.276-139.339-98.476-48.343-48.401-98.359-98.438-98.359-139.223 0-14.063 4.167-18.562 34.162-37.104 18.309-11.297 41.097-25.379 64.275-48.459 15.854-15.854 30.462-45.187 9.855-94.814-32.137-77.695-138.638-173.191-193.096-173.191-63.613 0-152 122.414-187.058 175.041L79 267.383v9.388c0 112.792 113.084 340.907 224.104 452.024 111.02 110.981 339.098 224.046 451.947 224.046h9.466l7.792-5.201c52.627-35.078 175.061-123.523 175.061-187.077-0.001-66.377-134.628-203.068-217.951-203.068z m13.829 322.775c-101.047-8.023-295.818-109.11-389.212-202.484-93.295-93.256-194.381-288.008-202.464-389.153 54.263-78.746 108.39-130.185 120.057-132.075 15.582 1.13 101.105 67.995 126.232 128.686 4.285 10.283 4.576 15.64 4.518 17.49-16.536 16.205-33.5 26.762-49.919 36.987-30.462 18.737-68.365 42.051-68.365 98.34 0 70.76 60.788 131.53 119.59 190.292 58.704 58.723 119.394 119.452 190.135 119.452 56.21 0 79.584-37.923 98.361-68.384 9.58-15.523 20.409-33.072 36.926-49.9 45.908 1.344 146.235 105.526 146.235 131.042-1.907 11.335-53.368 65.423-132.094 119.707z" fill="#F29600" p-id="22365"></path></svg>