<?xml version="1.0" standalone="no"?><!DOCTYPE svg PUBLIC "-//W3C//DTD SVG 1.1//EN" "http://www.w3.org/Graphics/SVG/1.1/DTD/svg11.dtd"><svg t="1649657244955" class="icon" viewBox="0 0 1024 1024" version="1.1" xmlns="http://www.w3.org/2000/svg" p-id="41507" xmlns:xlink="http://www.w3.org/1999/xlink" width="32" height="32"><defs><style type="text/css">@font-face { font-family: feedback-iconfont; src: url("//at.alicdn.com/t/font_1031158_u69w8yhxdu.woff2?t=1630033759944") format("woff2"), url("//at.alicdn.com/t/font_1031158_u69w8yhxdu.woff?t=1630033759944") format("woff"), url("//at.alicdn.com/t/font_1031158_u69w8yhxdu.ttf?t=1630033759944") format("truetype"); }
</style></defs><path d="M681.173333 376.746667c0 25.173333 17.066667 45.653333 38.186667 45.653333s38.186667-20.48 38.186667-45.653333c0-25.173333-17.066667-45.653333-38.186667-45.653334s-38.186667 20.48-38.186667 45.653334z m0 0M472.96 376.746667c0 25.173333 17.066667 45.653333 38.186667 45.653333s38.186667-20.48 38.186666-45.653333c0-25.173333-17.066667-45.653333-38.186666-45.653334s-38.186667 20.48-38.186667 45.653334z m0 0M573.866667 525.44c-11.946667-10.88-30.293333-10.24-41.6 1.493333-11.093333 11.733333-11.093333 30.08 0.213333 41.6a154.794667 154.794667 0 0 0 102.4 42.88c30.506667 0 64-11.306667 95.786667-43.306666 8.106667-7.466667 11.306667-18.773333 8.533333-29.226667a29.845333 29.845333 0 1 0-50.773333-13.013333c-52.48 52.693333-104.533333 8.96-114.56-0.426667z m0 0" fill="#ffffff" p-id="41508"></path><path d="M927.36 381.013333c-7.253333 0-14.506667 1.066667-21.333333 3.2-52.48-168.32-201.386667-288-376.96-302.506666A432.064 432.064 0 0 0 107.306667 317.653333a29.866667 29.866667 0 0 0 13.44 39.893334c14.72 7.466667 32.426667 1.493333 40.106666-13.013334a372.266667 372.266667 0 0 1 414.72-195.626666 372.394667 372.394667 0 0 1 290.133334 354.986666c3.626667 170.88-109.44 322.346667-274.346667 367.36-164.906667 45.013333-339.2-28.16-422.826667-177.28a29.866667 29.866667 0 0 0-40.533333-11.093333c-14.293333 7.893333-19.413333 26.026667-11.733333 40.32a431.722667 431.722667 0 0 0 424.32 217.813333A431.786667 431.786667 0 0 0 906.88 635.733333c6.613333 1.706667 13.226667 2.773333 20.053333 2.56 54.4 0 97.066667-56.533333 97.066667-128.64 0-72.106667-42.24-128.64-96.64-128.64z m0 197.76c-2.346667 0-4.693333-0.426667-7.04-1.493333 6.826667-44.586667 6.4-90.026667-0.853333-134.613333 2.346667-1.066667 4.906667-1.706667 7.68-1.92 17.706667 0 37.333333 29.44 37.333333 68.693333 0 39.04-19.413333 69.333333-37.12 69.333333z m0 0" fill="#ffffff" p-id="41509"></path><path d="M469.973333 738.773333c34.773333 0.213333 69.76-2.346667 104.106667-7.68 5.973333 7.893333 15.146667 12.586667 24.96 12.8 19.626667 0 35.413333-20.053333 35.413333-44.586666s-16-44.586667-35.413333-44.586667c-11.306667 0.426667-21.76 6.613333-27.52 16.213333h-1.706667c-2.346667 0.426667-231.893333 40.746667-400-76.16a155.946667 155.946667 0 0 0 24.32-85.76c0-72.106667-42.666667-128.64-97.066666-128.64C42.666667 380.8 0 437.546667 0 509.653333c0 72.106667 42.666667 128.64 97.066667 128.64 8.533333 0 16.853333-1.493333 24.746666-4.266666 114.346667 86.826667 253.226667 104.746667 348.16 104.746666zM59.733333 509.653333c0-39.466667 19.84-68.693333 37.333334-68.693333s37.333333 29.44 37.333333 68.693333c0 39.04-19.84 68.906667-37.333333 68.906667S59.733333 549.12 59.733333 509.653333z m0 0" fill="#ffffff" p-id="41510"></path></svg>