<?xml version="1.0" standalone="no"?><!DOCTYPE svg PUBLIC "-//W3C//DTD SVG 1.1//EN" "http://www.w3.org/Graphics/SVG/1.1/DTD/svg11.dtd"><svg t="1651738141588" class="icon" viewBox="0 0 1024 1024" version="1.1" xmlns="http://www.w3.org/2000/svg" p-id="5213" xmlns:xlink="http://www.w3.org/1999/xlink" width="32" height="32"><defs><style type="text/css">@font-face { font-family: feedback-iconfont; src: url("//at.alicdn.com/t/font_1031158_u69w8yhxdu.woff2?t=1630033759944") format("woff2"), url("//at.alicdn.com/t/font_1031158_u69w8yhxdu.woff?t=1630033759944") format("woff"), url("//at.alicdn.com/t/font_1031158_u69w8yhxdu.ttf?t=1630033759944") format("truetype"); }
</style></defs><path d="M515.770182 600.622545c-112.826182 0-204.613818-91.787636-204.613818-204.613818s91.787636-204.613818 204.613818-204.613818 204.613818 91.787636 204.613818 204.613818-91.787636 204.613818-204.613818 204.613818z m0-362.682181c-87.156364 0-158.068364 70.912-158.068364 158.068363s70.912 158.068364 158.068364 158.068364 158.068364-70.912 158.068363-158.068364-70.912-158.068364-158.068363-158.068363z" p-id="5214" fill="#707070"></path><path d="M515.770182 720.174545c-178.757818 0-324.189091-145.431273-324.189091-324.18909s145.431273-324.189091 324.189091-324.189091 324.189091 145.431273 324.189091 324.189091-145.431273 324.189091-324.189091 324.18909z m0-601.809454c-153.088 0-277.643636 124.555636-277.643637 277.643636s124.555636 277.643636 277.643637 277.643637 277.643636-124.555636 277.643636-277.643637-124.555636-277.643636-277.643636-277.643636z" p-id="5215" fill="#707070"></path><path d="M258.071273 1007.220364L192.930909 853.829818l-166.516364-6.795636 212.154182-306.804364 38.306909 26.461091-164.096 237.312 111.499637 4.514909 43.589818 102.702546 164.096-237.265455 38.283636 26.461091zM773.469091 1007.220364l-212.177455-306.804364 38.283637-26.461091 164.072727 237.265455 43.636364-102.702546 111.476363-4.514909-164.072727-237.312 38.260364-26.461091 212.154181 306.804364-166.516363 6.795636z" p-id="5216" fill="#707070"></path></svg>