<?xml version="1.0" standalone="no"?><!DOCTYPE svg PUBLIC "-//W3C//DTD SVG 1.1//EN" "http://www.w3.org/Graphics/SVG/1.1/DTD/svg11.dtd"><svg t="1651738057181" class="icon" viewBox="0 0 1024 1024" version="1.1" xmlns="http://www.w3.org/2000/svg" p-id="4795" xmlns:xlink="http://www.w3.org/1999/xlink" width="32" height="32"><defs><style type="text/css">@font-face { font-family: feedback-iconfont; src: url("//at.alicdn.com/t/font_1031158_u69w8yhxdu.woff2?t=1630033759944") format("woff2"), url("//at.alicdn.com/t/font_1031158_u69w8yhxdu.woff?t=1630033759944") format("woff"), url("//at.alicdn.com/t/font_1031158_u69w8yhxdu.ttf?t=1630033759944") format("truetype"); }
</style></defs><path d="M542.800839 213.559308c-5.525732-5.525732-11.665434-8.18627-17.805136-9.618867-4.093135-2.046567-8.902568-2.762866-13.712002-2.762866-4.809433 0-9.618867 0.716299-13.712002 2.762866-6.139702 1.330269-12.381733 4.093135-17.805136 9.618867L143.617867 549.605676c-15.04227 15.04227-15.04227 38.373139 0 53.517738 15.04227 15.04227 38.373139 15.04227 53.517738 0L476.901369 323.35765l0 598.006995c0 19.237734 15.04227 34.280004 34.280004 34.280004 19.237734 0 34.280004-15.04227 34.280004-34.280004L545.461377 323.35765l279.765764 279.765764c15.04227 15.04227 38.373139 15.04227 53.517738 0 15.04227-15.04227 15.04227-38.373139 0-53.517738L542.800839 213.559308 542.800839 213.559308zM922.746078 64.05756 99.718997 64.05756c-19.237734 0-34.280004 15.04227-34.280004 34.280004 0 19.237734 15.04227 34.280004 34.280004 34.280004l822.924753 0c19.237734 0 34.280004-15.04227 34.280004-34.280004C957.026082 79.202158 941.881483 64.05756 922.746078 64.05756L922.746078 64.05756z" p-id="4796" fill="#ff5e06"></path></svg>