<?xml version="1.0" standalone="no"?><!DOCTYPE svg PUBLIC "-//W3C//DTD SVG 1.1//EN" "http://www.w3.org/Graphics/SVG/1.1/DTD/svg11.dtd"><svg t="1649408562353" class="icon" viewBox="0 0 1024 1024" version="1.1" xmlns="http://www.w3.org/2000/svg" p-id="14234" xmlns:xlink="http://www.w3.org/1999/xlink" width="32" height="32"><defs><style type="text/css">@font-face { font-family: feedback-iconfont; src: url("//at.alicdn.com/t/font_1031158_u69w8yhxdu.woff2?t=1630033759944") format("woff2"), url("//at.alicdn.com/t/font_1031158_u69w8yhxdu.woff?t=1630033759944") format("woff"), url("//at.alicdn.com/t/font_1031158_u69w8yhxdu.ttf?t=1630033759944") format("truetype"); }
</style></defs><path d="M421.639981 0H43.809703A43.943391 43.943391 0 0 0 0 43.809703v377.830278a43.943391 43.943391 0 0 0 43.809703 43.742859h377.830278a43.943391 43.943391 0 0 0 43.809703-43.809703V43.809703A43.943391 43.943391 0 0 0 421.639981 0z m-49.27756 372.362421H93.087263V93.087263h279.275158zM980.176928 0H602.34665a43.930022 43.930022 0 0 0-43.809703 43.809703v377.830278a43.930022 43.930022 0 0 0 43.809703 43.742859h377.830278A43.943391 43.943391 0 0 0 1024.053475 421.639981V43.809703A43.943391 43.943391 0 0 0 980.176928 0z m-49.27756 372.362421H651.637579V93.087263h279.261789zM421.639981 558.536947H43.809703A43.930022 43.930022 0 0 0 0 602.34665v377.843647a43.943391 43.943391 0 0 0 43.809703 43.809703h377.830278a43.943391 43.943391 0 0 0 43.809703-43.809703V602.34665a43.930022 43.930022 0 0 0-43.809703-43.809703z m-49.27756 372.362421H93.087263v-279.275158h279.275158z" fill="#59DAC5" p-id="14235"></path><path d="M930.899368 1023.986631h49.27756A43.943391 43.943391 0 0 0 1024.053475 980.176928v-49.27756h-93.154107zM744.711473 930.899368h93.087263v93.087263h-93.087263z" fill="#B3F4E8" p-id="14236"></path><path d="M980.176928 558.536947h-49.27756v186.174526h-93.087263V558.536947H602.34665a43.930022 43.930022 0 0 0-43.809703 43.809703v377.843647a43.930022 43.930022 0 0 0 43.809703 43.809703h49.290929V744.711473h93.087263v93.087263H1024.053475V602.34665a43.930022 43.930022 0 0 0-43.809702-43.809703z m0 0" fill="#B3F4E8" p-id="14237"></path><path d="M175.225443 791.261789a57.486031 57.486031 0 1 0 28.743015-49.798945 57.486031 57.486031 0 0 0-28.743015 49.798945z m0 0M175.225443 232.764949a57.486031 57.486031 0 1 0 28.743015-49.798946 57.486031 57.486031 0 0 0-28.743015 49.798946z m0 0M733.76239 232.764949a57.486031 57.486031 0 1 0 28.743015-49.798946 57.486031 57.486031 0 0 0-28.743015 49.798946z m0 0" fill="#59DAC5" p-id="14238"></path></svg>