<?xml version="1.0" encoding="utf-8"?>
<svg version="1.1" xmlns:xlink="http://www.w3.org/1999/xlink" width="12px" height="12px" viewBox="687 797  12 12" xmlns="http://www.w3.org/2000/svg">
  <path d="M 693 797  C 696.36 797  699 799.64  699 803  C 699 806.36  696.36 809  693 809  C 689.64 809  687 806.36  687 803  C 687 799.64  689.64 797  693 797  Z " fill-rule="nonzero" fill="#ffffff" stroke="none" />
  <path d="M 693 797.5  C 696.08 797.5  698.5 799.92  698.5 803  C 698.5 806.08  696.08 808.5  693 808.5  C 689.92 808.5  687.5 806.08  687.5 803  C 687.5 799.92  689.92 797.5  693 797.5  Z " stroke-width="1" stroke="#797979" fill="none" />
  <path d="M 693 806  C 691.32 806  690 804.68  690 803  C 690 801.32  691.32 800  693 800  C 694.68 800  696 801.32  696 803  C 696 804.68  694.68 806  693 806  " fill-rule="nonzero" fill="#797979" stroke="none" />
</svg>