<?xml version="1.0" encoding="utf-8"?>
<svg version="1.1" xmlns:xlink="http://www.w3.org/1999/xlink" width="12px" height="12px" viewBox="687 841  12 12" xmlns="http://www.w3.org/2000/svg">
  <path d="M 693 841  C 696.36 841  699 843.64  699 847  C 699 850.36  696.36 853  693 853  C 689.64 853  687 850.36  687 847  C 687 843.64  689.64 841  693 841  Z " fill-rule="nonzero" fill="#ffffff" stroke="none" />
  <path d="M 693 841.5  C 696.08 841.5  698.5 843.92  698.5 847  C 698.5 850.08  696.08 852.5  693 852.5  C 689.92 852.5  687.5 850.08  687.5 847  C 687.5 843.92  689.92 841.5  693 841.5  Z " stroke-width="1" stroke="#797979" fill="none" />
  <path d="M 693 850  C 691.32 850  690 848.68  690 847  C 690 845.32  691.32 844  693 844  C 694.68 844  696 845.32  696 847  C 696 848.68  694.68 850  693 850  " fill-rule="nonzero" fill="#797979" stroke="none" />
</svg>