<?xml version="1.0" encoding="utf-8"?>
<svg version="1.1" xmlns:xlink="http://www.w3.org/1999/xlink" width="246px" height="34px" xmlns="http://www.w3.org/2000/svg">
  <g transform="matrix(1 0 0 1 -389 -435 )">
    <path d="M 389.5 452  A 16.5 16.5 0 0 1 406 435.5 L 618 435.5  A 16.5 16.5 0 0 1 634.5 452 A 16.5 16.5 0 0 1 618 468.5 L 406 468.5  A 16.5 16.5 0 0 1 389.5 452 Z " fill-rule="nonzero" fill="#ffffff" stroke="none" fill-opacity="0" />
    <path d="M 389.5 452  A 16.5 16.5 0 0 1 406 435.5 L 618 435.5  A 16.5 16.5 0 0 1 634.5 452 A 16.5 16.5 0 0 1 618 468.5 L 406 468.5  A 16.5 16.5 0 0 1 389.5 452 Z " stroke-width="1" stroke="#7cc5c5" fill="none" />
  </g>
</svg>