<?xml version="1.0" encoding="utf-8"?>
<svg version="1.1" xmlns:xlink="http://www.w3.org/1999/xlink" width="256px" height="44px" xmlns="http://www.w3.org/2000/svg">
  <defs>
    <filter x="384px" y="430px" width="256px" height="44px" filterUnits="userSpaceOnUse" id="filter85">
      <feOffset dx="0" dy="0" in="SourceAlpha" result="shadowOffsetInner" />
      <feGaussianBlur stdDeviation="2.5" in="shadowOffsetInner" result="shadowGaussian" />
      <feComposite in2="shadowGaussian" operator="atop" in="SourceAlpha" result="shadowComposite" />
      <feColorMatrix type="matrix" values="0 0 0 0 1  0 0 0 0 1  0 0 0 0 1  0 0 0 1 0  " in="shadowComposite" />
    </filter>
    <g id="widget86">
      <path d="M 389.5 452  A 16.5 16.5 0 0 1 406 435.5 L 618 435.5  A 16.5 16.5 0 0 1 634.5 452 A 16.5 16.5 0 0 1 618 468.5 L 406 468.5  A 16.5 16.5 0 0 1 389.5 452 Z " fill-rule="nonzero" fill="#ffffff" stroke="none" fill-opacity="0" />
      <path d="M 389.5 452  A 16.5 16.5 0 0 1 406 435.5 L 618 435.5  A 16.5 16.5 0 0 1 634.5 452 A 16.5 16.5 0 0 1 618 468.5 L 406 468.5  A 16.5 16.5 0 0 1 389.5 452 Z " stroke-width="1" stroke="#d7d7d7" fill="none" />
    </g>
  </defs>
  <g transform="matrix(1 0 0 1 -384 -430 )">
    <use xlink:href="#widget86" filter="url(#filter85)" />
    <use xlink:href="#widget86" />
  </g>
</svg>