<?xml version="1.0" encoding="utf-8"?>
<svg version="1.1" xmlns:xlink="http://www.w3.org/1999/xlink" width="22px" height="26px" xmlns="http://www.w3.org/2000/svg">
  <g transform="matrix(1 0 0 1 -652 -278 )">
    <path d="M 1.69230769230774 19.9642857142857  L 1.69230769230774 24.1428571428571  L 5.5 24.1428571428571  L 5.5 19.9642857142857  L 1.69230769230774 19.9642857142857  Z M 6.34615384615381 19.9642857142857  L 6.34615384615381 24.1428571428571  L 10.5769230769231 24.1428571428571  L 10.5769230769231 19.9642857142857  L 6.34615384615381 19.9642857142857  Z M 1.69230769230774 14.3928571428571  L 1.69230769230774 19.0357142857143  L 5.5 19.0357142857143  L 5.5 14.3928571428571  L 1.69230769230774 14.3928571428571  Z M 6.34615384615381 14.3928571428571  L 6.34615384615381 19.0357142857143  L 10.5769230769231 19.0357142857143  L 10.5769230769231 14.3928571428571  L 6.34615384615381 14.3928571428571  Z M 1.69230769230774 9.28571428571428  L 1.69230769230774 13.4642857142857  L 5.5 13.4642857142857  L 5.5 9.28571428571428  L 1.69230769230774 9.28571428571428  Z M 11.4230769230769 19.9642857142857  L 11.4230769230769 24.1428571428571  L 15.6538461538462 24.1428571428571  L 15.6538461538462 19.9642857142857  L 11.4230769230769 19.9642857142857  Z M 6.34615384615381 9.28571428571428  L 6.34615384615381 13.4642857142857  L 10.5769230769231 13.4642857142857  L 10.5769230769231 9.28571428571428  L 6.34615384615381 9.28571428571428  Z M 16.5 19.9642857142857  L 16.5 24.1428571428571  L 20.3076923076923 24.1428571428571  L 20.3076923076923 19.9642857142857  L 16.5 19.9642857142857  Z M 11.4230769230769 14.3928571428571  L 11.4230769230769 19.0357142857143  L 15.6538461538462 19.0357142857143  L 15.6538461538462 14.3928571428571  L 11.4230769230769 14.3928571428571  Z M 6.64362980769226 6.82645089285711  C 6.72736378205127 6.73456101190476  6.76923076923083 6.62574404761904  6.76923076923083 6.5  L 6.76923076923083 2.32142857142861  C 6.76923076923083 2.19568452380952  6.72736378205127 2.0868675595238  6.64362980769226 1.99497767857139  C 6.55989583333337 1.90308779761904  6.46073717948718 1.85714285714289  6.34615384615381 1.85714285714289  L 5.5 1.85714285714289  C 5.38541666666663 1.85714285714289  5.28625801282055 1.90308779761904  5.20252403846155 1.99497767857139  C 5.11879006410254 2.0868675595238  5.07692307692309 2.19568452380952  5.07692307692309 2.32142857142861  L 5.07692307692309 6.5  C 5.07692307692309 6.62574404761904  5.11879006410254 6.73456101190476  5.20252403846155 6.82645089285711  C 5.28625801282055 6.91834077380952  5.38541666666663 6.96428571428572  5.5 6.96428571428572  L 6.34615384615381 6.96428571428572  C 6.46073717948718 6.96428571428572  6.55989583333337 6.91834077380952  6.64362980769226 6.82645089285711  Z M 16.5 14.3928571428571  L 16.5 19.0357142857143  L 20.3076923076923 19.0357142857143  L 20.3076923076923 14.3928571428571  L 16.5 14.3928571428571  Z M 11.4230769230769 9.28571428571428  L 11.4230769230769 13.4642857142857  L 15.6538461538462 13.4642857142857  L 15.6538461538462 9.28571428571428  L 11.4230769230769 9.28571428571428  Z M 16.5 9.28571428571428  L 16.5 13.4642857142857  L 20.3076923076923 13.4642857142857  L 20.3076923076923 9.28571428571428  L 16.5 9.28571428571428  Z M 16.7974759615385 6.82645089285711  C 16.8812099358975 6.73456101190476  16.9230769230769 6.62574404761904  16.9230769230769 6.5  L 16.9230769230769 2.32142857142861  C 16.9230769230769 2.19568452380952  16.8812099358975 2.0868675595238  16.7974759615385 1.99497767857139  C 16.7137419871794 1.90308779761904  16.6145833333334 1.85714285714289  16.5 1.85714285714289  L 15.6538461538462 1.85714285714289  C 15.5392628205128 1.85714285714289  15.4401041666666 1.90308779761904  15.3563701923077 1.99497767857139  C 15.2726362179487 2.0868675595238  15.2307692307692 2.19568452380952  15.2307692307692 2.32142857142861  L 15.2307692307692 6.5  C 15.2307692307692 6.62574404761904  15.2726362179487 6.73456101190476  15.3563701923077 6.82645089285711  C 15.4401041666666 6.91834077380952  15.5392628205128 6.96428571428572  15.6538461538462 6.96428571428572  L 16.5 6.96428571428572  C 16.6145833333334 6.96428571428572  16.7137419871794 6.91834077380952  16.7974759615385 6.82645089285711  Z M 21.4975961538462 4.265625  C 21.832532051282 4.63318452380952  22 5.06845238095235  22 5.57142857142861  L 22 24.1428571428571  C 22 24.6458333333333  21.832532051282 25.0811011904762  21.4975961538462 25.4486607142857  C 21.1626602564103 25.8162202380952  20.7660256410256 26  20.3076923076923 26  L 1.69230769230774 26  C 1.23397435897436 26  0.837339743589723 25.8162202380952  0.502403846153811 25.4486607142857  C 0.167467948718013 25.0811011904762  0 24.6458333333333  0 24.1428571428571  L 0 5.57142857142861  C 0 5.06845238095235  0.167467948718013 4.63318452380952  0.502403846153811 4.265625  C 0.837339743589723 3.89806547619048  1.23397435897436 3.71428571428572  1.69230769230774 3.71428571428572  L 3.38461538461536 3.71428571428572  L 3.38461538461536 2.32142857142861  C 3.38461538461536 1.68303571428572  3.59174679487182 1.13653273809524  4.00600961538464 0.68191964285711  C 4.42027243589746 0.227306547619037  4.91826923076917 0  5.5 0  L 6.34615384615381 0  C 6.92788461538464 0  7.42588141025635 0.227306547619037  7.84014423076917 0.68191964285711  C 8.25440705128199 1.13653273809524  8.46153846153845 1.68303571428572  8.46153846153845 2.32142857142861  L 8.46153846153845 3.71428571428572  L 13.5384615384615 3.71428571428572  L 13.5384615384615 2.32142857142861  C 13.5384615384615 1.68303571428572  13.745592948718 1.13653273809524  14.1598557692308 0.68191964285711  C 14.5741185897436 0.227306547619037  15.0721153846154 0  15.6538461538462 0  L 16.5 0  C 17.0817307692308 0  17.5797275641025 0.227306547619037  17.9939903846154 0.68191964285711  C 18.4082532051282 1.13653273809524  18.6153846153846 1.68303571428572  18.6153846153846 2.32142857142861  L 18.6153846153846 3.71428571428572  L 20.3076923076923 3.71428571428572  C 20.7660256410256 3.71428571428572  21.1626602564103 3.89806547619048  21.4975961538462 4.265625  Z " fill-rule="nonzero" fill="#7cc5c5" stroke="none" transform="matrix(1 0 0 1 652 278 )" />
  </g>
</svg>