<?xml version="1.0" standalone="no"?><!DOCTYPE svg PUBLIC "-//W3C//DTD SVG 1.1//EN" "http://www.w3.org/Graphics/SVG/1.1/DTD/svg11.dtd"><svg t="1637215827789" class="icon" viewBox="0 0 1095 1024" version="1.1" xmlns="http://www.w3.org/2000/svg" p-id="24360" xmlns:xlink="http://www.w3.org/1999/xlink" width="34.21875" height="32"><defs><style type="text/css"></style></defs><path d="M611.584 874.6496v-128a42.6496 42.6496 0 0 0-42.6496-42.6496h-42.6496a42.6496 42.6496 0 0 0-42.6496 42.6496v128H248.9344V149.3504A85.3504 85.3504 0 0 1 334.2336 64h426.6496a85.3504 85.3504 0 0 1 85.3504 85.3504v725.2992h-234.6496zM419.584 149.3504a42.6496 42.6496 0 0 0-42.6496 42.6496v42.6496a42.6496 42.6496 0 0 0 42.6496 42.6496h42.6496a42.6496 42.6496 0 0 0 42.6496-42.6496V192a42.6496 42.6496 0 0 0-42.6496-42.6496z m0 170.6496a42.6496 42.6496 0 0 0-42.6496 42.6496v42.6496a42.6496 42.6496 0 0 0 42.6496 42.6496h42.6496a42.6496 42.6496 0 0 0 42.6496-42.6496v-42.6496a42.6496 42.6496 0 0 0-42.6496-42.6496z m0 170.6496a42.6496 42.6496 0 0 0-42.6496 42.6496v42.6496a42.6496 42.6496 0 0 0 42.6496 42.6496h42.6496a42.6496 42.6496 0 0 0 42.6496-42.6496v-42.6496a42.6496 42.6496 0 0 0-42.6496-42.6496h-42.6496z m213.3504 0a42.6496 42.6496 0 0 0-42.6496 42.6496v42.6496a42.6496 42.6496 0 0 0 42.6496 42.6496h42.6496a42.6496 42.6496 0 0 0 42.6496-42.6496v-42.6496a42.6496 42.6496 0 0 0-42.3936-42.6496h-42.6496z" fill="#0091EB" p-id="24361"></path><path d="M632.9344 320H675.84q42.6496 0 42.6496 42.6496v42.6496q0 42.6496-42.6496 42.6496h-42.6496q-42.6496 0-42.6496-42.6496v-42.6496q-0.3072-42.6496 42.3936-42.6496z" fill="#FFFFFF" p-id="24362"></path><path d="M206.2336 874.6496h682.7008a42.6496 42.6496 0 0 1 42.6496 42.6496v17.0496a25.6 25.6 0 0 1-25.6 25.6h-716.8a25.6 25.6 0 0 1-25.6-25.6v-17.0496a42.6496 42.6496 0 0 1 42.6496-42.6496z" fill="#BBE2FF" p-id="24363"></path><path d="M632.9344 149.3504a42.6496 42.6496 0 0 0-42.6496 42.6496v42.6496a42.6496 42.6496 0 0 0 42.6496 42.6496h42.6496a42.6496 42.6496 0 0 0 42.6496-42.6496V192a42.6496 42.6496 0 0 0-42.6496-42.6496h-42.6496z" fill="#FFB541" p-id="24364"></path></svg>