<?xml version="1.0" standalone="no"?><!DOCTYPE svg PUBLIC "-//W3C//DTD SVG 1.1//EN" "http://www.w3.org/Graphics/SVG/1.1/DTD/svg11.dtd"><svg t="1637216011885" class="icon" viewBox="0 0 1095 1024" version="1.1" xmlns="http://www.w3.org/2000/svg" p-id="843" xmlns:xlink="http://www.w3.org/1999/xlink" width="34.21875" height="32"><defs><style type="text/css"></style></defs><path d="M419.328 473.088c-94.208 0-170.496-76.288-170.496-170.496s76.288-170.496 170.496-170.496 170.496 76.288 170.496 170.496c0 93.696-76.288 170.496-170.496 170.496zM35.328 865.28c16.384-203.776 181.76-307.2 382.976-307.2 204.288 0 372.224 97.792 384.512 307.2 0.512 8.192 0 34.304-32.256 34.304H66.56c-10.752 0-31.744-23.04-31.232-34.304z" fill="#0091EB" p-id="844"></path><path d="M760.832 473.088m-128 0a128 128 0 1 0 256 0 128 128 0 1 0-256 0Z" fill="#FFB541" p-id="845"></path><path d="M786.432 643.584c145.408 1.536 264.192 75.264 272.896 230.4 0.512 6.144 0 25.6-23.04 25.6h-164.352c0-95.744-31.744-184.832-85.504-256z" fill="#BBE2FF" p-id="846"></path></svg>