<?xml version="1.0" encoding="utf-8"?>
<svg version="1.1" xmlns:xlink="http://www.w3.org/1999/xlink" width="34px" height="37px" xmlns="http://www.w3.org/2000/svg">
  <g>
    <path d="M 26.8076923076923 19.4291294642857  C 26.8076923076923 19.6080729166667  26.7463942307692 19.766369047619  26.6237980769231 19.9040178571429  L 16.1622596153846 30.4754464285714  C 16.0260416666667 30.5993303571429  15.869391025641 30.6612723214286  15.6923076923077 30.6612723214286  C 15.5152243589744 30.6612723214286  15.3585737179487 30.5993303571429  15.2223557692308 30.4754464285714  L 9.33774038461539 24.5290178571429  C 9.21514423076923 24.391369047619  9.15384615384615 24.2330729166667  9.15384615384615 24.0541294642857  C 9.15384615384615 23.8751860119048  9.21514423076923 23.7237723214286  9.33774038461539 23.5998883928571  L 10.2776442307692 22.6501116071429  C 10.4002403846154 22.5262276785714  10.5500801282051 22.4642857142857  10.7271634615385 22.4642857142857  C 10.9042467948718 22.4642857142857  11.0608974358974 22.5262276785714  11.1971153846154 22.6501116071429  L 15.6923076923077 27.1925223214286  L 24.7644230769231 18.0251116071429  C 24.900641025641 17.9012276785714  25.0572916666667 17.8392857142857  25.234375 17.8392857142857  C 25.4114583333333 17.8392857142857  25.5612980769231 17.9012276785714  25.6838942307692 18.0251116071429  L 26.6237980769231 18.9748883928571  C 26.7463942307692 19.0987723214286  26.8076923076923 19.2501860119048  26.8076923076923 19.4291294642857  Z M 3 13.2142857142857  L 3 34  L 31 34  L 31 13.2142857142857  L 3 13.2142857142857  Z M 10.2776442307692 9.72488839285714  C 10.4002403846154 9.60100446428571  10.4615384615385 9.44270833333333  10.4615384615385 9.25  L 10.4615384615385 3.30357142857143  C 10.4615384615385 3.11086309523809  10.4002403846154 2.95256696428571  10.2776442307692 2.82868303571429  C 10.1550480769231 2.70479910714286  9.99839743589744 2.64285714285714  9.80769230769231 2.64285714285714  L 8.5 2.64285714285714  C 8.30929487179487 2.64285714285714  8.15264423076923 2.70479910714286  8.03004807692308 2.82868303571429  C 7.90745192307692 2.95256696428571  7.84615384615385 3.11086309523809  7.84615384615385 3.30357142857143  L 7.84615384615385 9.25  C 7.84615384615385 9.44270833333333  7.90745192307692 9.60100446428571  8.03004807692308 9.72488839285714  C 8.15264423076923 9.84877232142857  8.30929487179487 9.91071428571429  8.5 9.91071428571429  L 9.80769230769231 9.91071428571429  C 9.99839743589744 9.91071428571429  10.1550480769231 9.84877232142857  10.2776442307692 9.72488839285714  Z M 25.9699519230769 9.72488839285714  C 26.0925480769231 9.60100446428571  26.1538461538462 9.44270833333333  26.1538461538462 9.25  L 26.1538461538462 3.30357142857143  C 26.1538461538462 3.11086309523809  26.0925480769231 2.95256696428571  25.9699519230769 2.82868303571429  C 25.8473557692308 2.70479910714286  25.6907051282051 2.64285714285714  25.5 2.64285714285714  L 24.1923076923077 2.64285714285714  C 24.0016025641026 2.64285714285714  23.8449519230769 2.70479910714286  23.7223557692308 2.82868303571429  C 23.5997596153846 2.95256696428571  23.5384615384615 3.11086309523809  23.5384615384615 3.30357142857143  L 23.5384615384615 9.25  C 23.5384615384615 9.44270833333333  23.5997596153846 9.60100446428571  23.7223557692308 9.72488839285714  C 23.8449519230769 9.84877232142857  24.0016025641026 9.91071428571429  24.1923076923077 9.91071428571429  L 25.5 9.91071428571429  C 25.6907051282051 9.91071428571429  25.8473557692308 9.84877232142857  25.9699519230769 9.72488839285714  Z M 33.2235576923077 6.0703125  C 33.7411858974359 6.59337797619048  34 7.21279761904762  34 7.92857142857143  L 34 34.3571428571429  C 34 35.0729166666667  33.7411858974359 35.6923363095238  33.2235576923077 36.2154017857143  C 32.7059294871795 36.7384672619048  32.0929487179487 37  31.3846153846154 37  L 2.61538461538462 37  C 1.90705128205128 37  1.29407051282051 36.7384672619048  0.776442307692308 36.2154017857143  C 0.258814102564103 35.6923363095238  0 35.0729166666667  0 34.3571428571429  L 0 7.92857142857143  C 0 7.21279761904762  0.258814102564103 6.59337797619048  0.776442307692308 6.0703125  C 1.29407051282051 5.54724702380952  1.90705128205128 5.28571428571429  2.61538461538462 5.28571428571429  L 5.23076923076923 5.28571428571429  L 5.23076923076923 3.30357142857143  C 5.23076923076923 2.39508928571429  5.55088141025641 1.61737351190476  6.19110576923077 0.970424107142858  C 6.83133012820513 0.323474702380953  7.60096153846154 0  8.5 0  L 9.80769230769231 0  C 10.7067307692308 0  11.4763621794872 0.323474702380953  12.1165865384615 0.970424107142858  C 12.7568108974359 1.61737351190476  13.0769230769231 2.39508928571429  13.0769230769231 3.30357142857143  L 13.0769230769231 5.28571428571429  L 20.9230769230769 5.28571428571429  L 20.9230769230769 3.30357142857143  C 20.9230769230769 2.39508928571429  21.2431891025641 1.61737351190476  21.8834134615385 0.970424107142858  C 22.5236378205128 0.323474702380953  23.2932692307692 0  24.1923076923077 0  L 25.5 0  C 26.3990384615385 0  27.1686698717949 0.323474702380953  27.8088942307692 0.970424107142858  C 28.4491185897436 1.61737351190476  28.7692307692308 2.39508928571429  28.7692307692308 3.30357142857143  L 28.7692307692308 5.28571428571429  L 31.3846153846154 5.28571428571429  C 32.0929487179487 5.28571428571429  32.7059294871795 5.54724702380952  33.2235576923077 6.0703125  Z " fill-rule="nonzero" fill="#7cc5c5" stroke="none" />
  </g>
</svg>