<?xml version="1.0" standalone="no"?><!DOCTYPE svg PUBLIC "-//W3C//DTD SVG 1.1//EN" "http://www.w3.org/Graphics/SVG/1.1/DTD/svg11.dtd"><svg t="1627545856678" class="icon" viewBox="0 0 1024 1024" version="1.1" xmlns="http://www.w3.org/2000/svg" p-id="9137" xmlns:xlink="http://www.w3.org/1999/xlink" width="16" height="16"><defs><style type="text/css">@font-face { font-family: feedback-iconfont; src: url("//at.alicdn.com/t/font_1031158_1uhr8ri0pk5.eot?#iefix") format("embedded-opentype"), url("//at.alicdn.com/t/font_1031158_1uhr8ri0pk5.woff2") format("woff2"), url("//at.alicdn.com/t/font_1031158_1uhr8ri0pk5.woff") format("woff"), url("//at.alicdn.com/t/font_1031158_1uhr8ri0pk5.ttf") format("truetype"), url("//at.alicdn.com/t/font_1031158_1uhr8ri0pk5.svg#iconfont") format("svg"); }
</style></defs><path d="M845.303651 451.530882v497.922972c0 41.17208-33.376065 74.546146-74.546146 74.546146H158.344309c-41.17208 0-74.546146-33.376065-74.546145-74.546146V169.446331c0-41.18208 33.384065-74.546146 74.546145-74.546146h330.318645z" fill="#BED8FB" p-id="9138"></path><path d="M253.244495 929.101815c-41.17208 0-74.546146-33.376065-74.546146-74.546146V74.546146C178.696349 33.364065 212.080414 0 253.244495 0H583.56114C640.351251 0 940.201836 299.848586 940.201836 356.632697v497.922972c0 41.17208-33.376065 74.546146-74.546145 74.546146z" fill="#DDEAFB" p-id="9139"></path><path d="M940.201836 356.638697v31.534061c0-66.39013-53.836105-120.226235-120.226234-120.226235H746.801459c-41.16208 0-74.546146-33.384065-74.546146-74.546145V120.226235C672.255313 53.836105 618.419208 0 552.029078 0h31.534062c56.780111 0 111.254217 22.560044 151.402295 62.710122l142.528279 142.528279a214.140418 214.140418 0 0 1 62.708122 151.400296z" fill="#BED8FB" p-id="9140"></path><path d="M633.667238 539.307053V321.356628a17.024033 17.024033 0 0 0-17.024034-17.024034h-114.388223a17.024033 17.024033 0 0 0-17.024033 17.024034v217.950425H436.600853c-15.16603 0-22.762044 18.336036-12.038024 29.060057l108.662212 108.662212c14.482028 14.482028 37.964074 14.482028 52.446103 0l108.662212-108.662212c10.724021-10.724021 3.128006-29.060057-12.038023-29.060057zM692.105352 736.843439H426.792834c-18.322036 0-33.174065 14.852029-33.174065 33.174065v0.912002c0 18.322036 14.852029 33.174065 33.174065 33.174065h265.312518c18.322036 0 33.174065-14.852029 33.174065-33.174065v-0.912002c0-18.322036-14.852029-33.174065-33.174065-33.174065z" fill="#01c8f2" p-id="9141" data-spm-anchor-id="a313x.7781069.0.i0" class="selected"></path></svg>